<svg width="131" height="19" viewBox="0 0 131 19" fill="none" xmlns="http://www.w3.org/2000/svg">
<path d="M11.3184 3.87695C11.5007 3.78581 11.6693 3.74023 11.8242 3.74023C12.125 3.74023 12.3757 3.9362 12.5762 4.32812C12.6855 4.54688 12.7402 4.73828 12.7402 4.90234C12.7402 5.20312 12.5534 5.44466 12.1797 5.62695L2.99219 10.0293L12.1797 14.4316C12.5534 14.6139 12.7402 14.8555 12.7402 15.1562C12.7402 15.3203 12.6855 15.5117 12.5762 15.7305C12.3757 16.1224 12.125 16.3184 11.8242 16.3184C11.6693 16.3184 11.5007 16.2728 11.3184 16.1816L0.695312 10.9727C0.467448 10.8633 0.303385 10.7357 0.203125 10.5898C0.102865 10.444 0.0527344 10.2572 0.0527344 10.0293C0.0527344 9.80143 0.102865 9.61458 0.203125 9.46875C0.303385 9.32292 0.467448 9.19531 0.695312 9.08594L11.3184 3.87695ZM30.1172 16.1406C30.4271 16.1406 30.6458 16.2135 30.7734 16.3594C30.9102 16.4961 30.9785 16.7331 30.9785 17.0703C30.9785 17.4076 30.9102 17.6491 30.7734 17.7949C30.6458 17.9316 30.4271 18 30.1172 18H25.6875C25.3776 18 25.1543 17.9316 25.0176 17.7949C24.89 17.6491 24.8262 17.4076 24.8262 17.0703C24.8262 16.7331 24.89 16.4961 25.0176 16.3594C25.1543 16.2135 25.3776 16.1406 25.6875 16.1406H26.6719L23.2402 12.0664L20.752 14.2539V16.1406H21.75C22.0599 16.1406 22.2786 16.2135 22.4062 16.3594C22.543 16.4961 22.6113 16.7331 22.6113 17.0703C22.6113 17.4076 22.543 17.6491 22.4062 17.7949C22.2786 17.9316 22.0599 18 21.75 18H17.1836C16.8737 18 16.6504 17.9316 16.5137 17.7949C16.3861 17.6491 16.3223 17.4076 16.3223 17.0703C16.3223 16.7331 16.3861 16.4961 16.5137 16.3594C16.6504 16.2135 16.8737 16.1406 17.1836 16.1406H18.7012V1.92188H16.9102C16.6003 1.92188 16.377 1.85352 16.2402 1.7168C16.1126 1.57096 16.0488 1.32943 16.0488 0.992188C16.0488 0.654948 16.1126 0.417969 16.2402 0.28125C16.377 0.135417 16.6003 0.0625 16.9102 0.0625H19.8906C20.2005 0.0625 20.4193 0.135417 20.5469 0.28125C20.6836 0.417969 20.752 0.654948 20.752 0.992188V11.8203L25.9609 7.22656H24.9902C24.6803 7.22656 24.457 7.1582 24.3203 7.02148C24.1927 6.87565 24.1289 6.63411 24.1289 6.29688C24.1289 5.95964 24.1927 5.72266 24.3203 5.58594C24.457 5.4401 24.6803 5.36719 24.9902 5.36719H29.5566C29.8665 5.36719 30.0853 5.4401 30.2129 5.58594C30.3496 5.72266 30.418 5.95964 30.418 6.29688C30.418 6.63411 30.3496 6.87565 30.2129 7.02148C30.0853 7.1582 29.8665 7.22656 29.5566 7.22656H28.75L24.7305 10.7676L29.3242 16.1406H30.1172ZM44.7188 5.36719C45.0286 5.36719 45.2474 5.4401 45.375 5.58594C45.5117 5.72266 45.5801 5.95964 45.5801 6.29688V16.1406H46.7012C47.0111 16.1406 47.2298 16.2135 47.3574 16.3594C47.4941 16.4961 47.5625 16.7331 47.5625 17.0703C47.5625 17.4076 47.4941 17.6491 47.3574 17.7949C47.2298 17.9316 47.0111 18 46.7012 18H44.5273C44.2174 18 43.9941 17.9316 43.8574 17.7949C43.7298 17.6582 43.666 17.4212 43.666 17.084V15.4297C43.0645 16.3594 42.3581 17.0703 41.5469 17.5625C40.7448 18.0547 39.8789 18.3008 38.9492 18.3008C38.1198 18.3008 37.3997 18.123 36.7891 17.7676C36.1784 17.403 35.709 16.8835 35.3809 16.209C35.0527 15.5345 34.8887 14.7461 34.8887 13.8438V7.22656H33.7676C33.4577 7.22656 33.2344 7.1582 33.0977 7.02148C32.9701 6.87565 32.9062 6.63411 32.9062 6.29688C32.9062 5.95964 32.9701 5.72266 33.0977 5.58594C33.2344 5.4401 33.4577 5.36719 33.7676 5.36719H36.0781C36.388 5.36719 36.6068 5.4401 36.7344 5.58594C36.8711 5.72266 36.9395 5.95964 36.9395 6.29688V13.6387C36.9395 14.4499 37.1263 15.0924 37.5 15.5664C37.8737 16.0404 38.4251 16.2773 39.1543 16.2773C39.929 16.2773 40.6491 16.054 41.3145 15.6074C41.9889 15.1608 42.5267 14.5456 42.9277 13.7617C43.3288 12.9779 43.5293 12.1029 43.5293 11.1367V7.22656H41.5879C41.278 7.22656 41.0547 7.1582 40.918 7.02148C40.7904 6.87565 40.7266 6.63411 40.7266 6.29688C40.7266 5.95964 40.7904 5.72266 40.918 5.58594C41.0547 5.4401 41.278 5.36719 41.5879 5.36719H44.7188ZM61.4121 5.06641C61.7858 5.06641 62.0501 5.13477 62.2051 5.27148C62.36 5.4082 62.4375 5.63607 62.4375 5.95508V8.55273C62.4375 8.87174 62.36 9.09961 62.2051 9.23633C62.0501 9.37305 61.7858 9.44141 61.4121 9.44141C61.1022 9.44141 60.8835 9.32292 60.7559 9.08594C60.3639 8.33854 59.7943 7.81445 59.0469 7.51367C58.2995 7.20378 57.3516 7.04883 56.2031 7.04883C55.319 7.04883 54.6263 7.20833 54.125 7.52734C53.6328 7.83724 53.3867 8.27474 53.3867 8.83984C53.3867 9.13151 53.4779 9.36849 53.6602 9.55078C53.8516 9.73307 54.1296 9.88346 54.4941 10.002C54.7949 10.1022 55.1413 10.1797 55.5332 10.2344C55.9342 10.2891 56.4492 10.3483 57.0781 10.4121C57.9622 10.5124 58.6732 10.6081 59.2109 10.6992C59.7578 10.7812 60.2728 10.9089 60.7559 11.082C61.485 11.3464 62.0501 11.7292 62.4512 12.2305C62.8613 12.7318 63.0664 13.3926 63.0664 14.2129C63.0664 15.0332 62.8568 15.7533 62.4375 16.373C62.0273 16.9837 61.4212 17.4577 60.6191 17.7949C59.8262 18.1322 58.8737 18.3008 57.7617 18.3008C56.7773 18.3008 55.9115 18.1641 55.1641 17.8906C54.4167 17.6172 53.765 17.2025 53.209 16.6465V17.4121C53.209 17.7311 53.1315 17.959 52.9766 18.0957C52.8216 18.2324 52.5573 18.3008 52.1836 18.3008C51.8099 18.3008 51.5456 18.2324 51.3906 18.0957C51.2357 17.959 51.1582 17.7311 51.1582 17.4121V14.1309C51.1582 13.8118 51.2357 13.584 51.3906 13.4473C51.5456 13.3105 51.8099 13.2422 52.1836 13.2422C52.375 13.2422 52.5254 13.2878 52.6348 13.3789C52.7441 13.4609 52.8398 13.6022 52.9219 13.8027C53.25 14.6777 53.7969 15.3158 54.5625 15.7168C55.3281 16.1178 56.349 16.3184 57.625 16.3184C58.6823 16.3184 59.4935 16.127 60.0586 15.7441C60.6237 15.3613 60.9062 14.8509 60.9062 14.2129C60.9062 13.903 60.806 13.6478 60.6055 13.4473C60.4049 13.2467 60.1178 13.0827 59.7441 12.9551C59.4251 12.8548 59.056 12.7728 58.6367 12.709C58.2266 12.6361 57.7025 12.5677 57.0645 12.5039C56.2077 12.4128 55.4922 12.3171 54.918 12.2168C54.3438 12.1165 53.8151 11.9707 53.332 11.7793C52.6667 11.515 52.1471 11.1504 51.7734 10.6855C51.4089 10.2116 51.2266 9.59635 51.2266 8.83984C51.2266 8.04688 51.4316 7.36784 51.8418 6.80273C52.2611 6.22852 52.8353 5.79557 53.5645 5.50391C54.3027 5.21224 55.1367 5.06641 56.0664 5.06641C56.9505 5.06641 57.7572 5.19857 58.4863 5.46289C59.2246 5.72721 59.8581 6.09635 60.3867 6.57031V5.95508C60.3867 5.63607 60.4642 5.4082 60.6191 5.27148C60.7741 5.13477 61.0384 5.06641 61.4121 5.06641ZM69.8613 0.0625C70.1712 0.0625 70.39 0.135417 70.5176 0.28125C70.6543 0.417969 70.7227 0.654948 70.7227 0.992188V7.80078C71.3151 6.91667 71.9987 6.24219 72.7734 5.77734C73.5573 5.30339 74.4004 5.06641 75.3027 5.06641C76.1322 5.06641 76.8522 5.2487 77.4629 5.61328C78.0736 5.96875 78.543 6.48372 78.8711 7.1582C79.1992 7.83268 79.3633 8.62109 79.3633 9.52344V16.1406H80.4844C80.7943 16.1406 81.013 16.2135 81.1406 16.3594C81.2773 16.4961 81.3457 16.7331 81.3457 17.0703C81.3457 17.4076 81.2773 17.6491 81.1406 17.7949C81.013 17.9316 80.7943 18 80.4844 18H76.0547C75.7448 18 75.5215 17.9316 75.3848 17.7949C75.2572 17.6491 75.1934 17.4076 75.1934 17.0703C75.1934 16.7331 75.2572 16.4961 75.3848 16.3594C75.5215 16.2135 75.7448 16.1406 76.0547 16.1406H77.3125V9.72852C77.3125 8.91732 77.1257 8.27474 76.752 7.80078C76.3783 7.32682 75.8268 7.08984 75.0977 7.08984C74.3229 7.08984 73.5983 7.31315 72.9238 7.75977C72.2585 8.20638 71.7253 8.82161 71.3242 9.60547C70.9232 10.3893 70.7227 11.2643 70.7227 12.2305V16.1406H71.9805C72.2904 16.1406 72.5091 16.2135 72.6367 16.3594C72.7734 16.4961 72.8418 16.7331 72.8418 17.0703C72.8418 17.4076 72.7734 17.6491 72.6367 17.7949C72.5091 17.9316 72.2904 18 71.9805 18H67.5508C67.2409 18 67.0176 17.9316 66.8809 17.7949C66.7533 17.6491 66.6895 17.4076 66.6895 17.0703C66.6895 16.7331 66.7533 16.4961 66.8809 16.3594C67.0176 16.2135 67.2409 16.1406 67.5508 16.1406H68.6719V1.92188H67.4141C67.1042 1.92188 66.8809 1.85352 66.7441 1.7168C66.6165 1.57096 66.5527 1.32943 66.5527 0.992188C66.5527 0.654948 66.6165 0.417969 66.7441 0.28125C66.8809 0.135417 67.1042 0.0625 67.4141 0.0625H69.8613ZM90.7383 5.06641C92.4518 5.06641 93.737 5.44922 94.5938 6.21484C95.4505 6.98047 95.8789 8.11523 95.8789 9.61914V15.0605C95.8789 15.7806 96.1797 16.1406 96.7812 16.1406H97.2598C97.5697 16.1406 97.7884 16.2135 97.916 16.3594C98.0527 16.4961 98.1211 16.7331 98.1211 17.0703C98.1211 17.4076 98.0527 17.6491 97.916 17.7949C97.7884 17.9316 97.5697 18 97.2598 18H96.3848C95.7923 18 95.2819 17.8542 94.8535 17.5625C94.4342 17.2617 94.1608 16.8242 94.0332 16.25C93.2858 16.9062 92.4746 17.4121 91.5996 17.7676C90.7337 18.123 89.8132 18.3008 88.8379 18.3008C87.9173 18.3008 87.1016 18.1458 86.3906 17.8359C85.6888 17.5169 85.1374 17.0566 84.7363 16.4551C84.3353 15.8535 84.1348 15.138 84.1348 14.3086C84.1348 12.8685 84.6497 11.8066 85.6797 11.123C86.7096 10.4303 88.0404 10.084 89.6719 10.084C91.1211 10.084 92.5065 10.3164 93.8281 10.7812V9.61914C93.8281 8.73503 93.5775 8.08789 93.0762 7.67773C92.584 7.25846 91.7865 7.04883 90.6836 7.04883C90 7.04883 89.2891 7.14453 88.5508 7.33594C87.8125 7.52734 87.1107 7.79167 86.4453 8.12891C86.2904 8.21094 86.1491 8.25195 86.0215 8.25195C85.7207 8.25195 85.4701 8.0332 85.2695 7.5957C85.1693 7.37695 85.1191 7.19466 85.1191 7.04883C85.1191 6.72982 85.2878 6.48372 85.625 6.31055C86.3906 5.90951 87.2109 5.60417 88.0859 5.39453C88.9701 5.17578 89.8542 5.06641 90.7383 5.06641ZM89.6855 12.0117C88.6374 12.0117 87.8079 12.194 87.1973 12.5586C86.5957 12.9141 86.2949 13.4837 86.2949 14.2676C86.2949 14.9329 86.5228 15.4525 86.9785 15.8262C87.4434 16.1908 88.0905 16.373 88.9199 16.373C90.7337 16.373 92.3698 15.6211 93.8281 14.1172V12.627C93.2083 12.4264 92.543 12.276 91.832 12.1758C91.1211 12.0664 90.4056 12.0117 89.6855 12.0117ZM107.828 0.0625C108.138 0.0625 108.357 0.135417 108.484 0.28125C108.621 0.417969 108.689 0.654948 108.689 0.992188V16.1406H113.078C113.388 16.1406 113.607 16.2135 113.734 16.3594C113.871 16.4961 113.939 16.7331 113.939 17.0703C113.939 17.4076 113.871 17.6491 113.734 17.7949C113.607 17.9316 113.388 18 113.078 18H102.359C102.049 18 101.826 17.9316 101.689 17.7949C101.562 17.6491 101.498 17.4076 101.498 17.0703C101.498 16.7331 101.562 16.4961 101.689 16.3594C101.826 16.2135 102.049 16.1406 102.359 16.1406H106.639V1.92188H102.906C102.596 1.92188 102.373 1.85352 102.236 1.7168C102.109 1.57096 102.045 1.32943 102.045 0.992188C102.045 0.654948 102.109 0.417969 102.236 0.28125C102.373 0.135417 102.596 0.0625 102.906 0.0625H107.828ZM130.305 9.08594C130.533 9.19531 130.697 9.32292 130.797 9.46875C130.897 9.61458 130.947 9.80143 130.947 10.0293C130.947 10.2572 130.897 10.444 130.797 10.5898C130.697 10.7357 130.533 10.8633 130.305 10.9727L119.682 16.1816C119.499 16.2728 119.331 16.3184 119.176 16.3184C118.875 16.3184 118.624 16.1224 118.424 15.7305C118.314 15.5117 118.26 15.3203 118.26 15.1562C118.26 14.8555 118.447 14.6139 118.82 14.4316L128.008 10.0293L118.82 5.62695C118.447 5.44466 118.26 5.20312 118.26 4.90234C118.26 4.73828 118.314 4.54688 118.424 4.32812C118.624 3.9362 118.875 3.74023 119.176 3.74023C119.331 3.74023 119.499 3.78581 119.682 3.87695L130.305 9.08594Z" fill="black"/>
</svg>
