<svg width="139" height="26" viewBox="0 0 139 26" fill="none" xmlns="http://www.w3.org/2000/svg">
<g clip-path="url(#clip0_4_7)">
<rect width="138.54" height="25.05" fill="white"/>
<path d="M13.6284 6.39014C13.7912 6.30876 13.9417 6.26807 14.0801 6.26807C14.3486 6.26807 14.5724 6.44303 14.7515 6.79297C14.8491 6.98828 14.8979 7.15918 14.8979 7.30566C14.8979 7.57422 14.7311 7.78988 14.3975 7.95264L6.19434 11.8833L14.3975 15.814C14.7311 15.9767 14.8979 16.1924 14.8979 16.4609C14.8979 16.6074 14.8491 16.7783 14.7515 16.9736C14.5724 17.3236 14.3486 17.4985 14.0801 17.4985C13.9417 17.4985 13.7912 17.4578 13.6284 17.3765L4.14355 12.7256C3.9401 12.6279 3.79362 12.514 3.7041 12.3838C3.61458 12.2536 3.56982 12.0868 3.56982 11.8833C3.56982 11.6799 3.61458 11.513 3.7041 11.3828C3.79362 11.2526 3.9401 11.1387 4.14355 11.041L13.6284 6.39014ZM30.4131 17.3398C30.6898 17.3398 30.8851 17.4049 30.999 17.5352C31.1211 17.6572 31.1821 17.8688 31.1821 18.1699C31.1821 18.471 31.1211 18.6867 30.999 18.8169C30.8851 18.939 30.6898 19 30.4131 19H26.458C26.1813 19 25.9819 18.939 25.8599 18.8169C25.7459 18.6867 25.689 18.471 25.689 18.1699C25.689 17.8688 25.7459 17.6572 25.8599 17.5352C25.9819 17.4049 26.1813 17.3398 26.458 17.3398H27.3369L24.2729 13.7021L22.0513 15.6553V17.3398H22.9424C23.2191 17.3398 23.4144 17.4049 23.5283 17.5352C23.6504 17.6572 23.7114 17.8688 23.7114 18.1699C23.7114 18.471 23.6504 18.6867 23.5283 18.8169C23.4144 18.939 23.2191 19 22.9424 19H18.8652C18.5885 19 18.3892 18.939 18.2671 18.8169C18.1532 18.6867 18.0962 18.471 18.0962 18.1699C18.0962 17.8688 18.1532 17.6572 18.2671 17.5352C18.3892 17.4049 18.5885 17.3398 18.8652 17.3398H20.2202V4.64453H18.6211C18.3444 4.64453 18.145 4.5835 18.0229 4.46143C17.909 4.33122 17.8521 4.11556 17.8521 3.81445C17.8521 3.51335 17.909 3.30176 18.0229 3.17969C18.145 3.04948 18.3444 2.98438 18.6211 2.98438H21.2822C21.5589 2.98438 21.7542 3.04948 21.8682 3.17969C21.9902 3.30176 22.0513 3.51335 22.0513 3.81445V13.4824L26.7021 9.38086H25.8354C25.5588 9.38086 25.3594 9.31982 25.2373 9.19775C25.1234 9.06755 25.0664 8.85189 25.0664 8.55078C25.0664 8.24967 25.1234 8.03809 25.2373 7.91602C25.3594 7.78581 25.5588 7.7207 25.8354 7.7207H29.9126C30.1893 7.7207 30.3846 7.78581 30.4985 7.91602C30.6206 8.03809 30.6816 8.24967 30.6816 8.55078C30.6816 8.85189 30.6206 9.06755 30.4985 9.19775C30.3846 9.31982 30.1893 9.38086 29.9126 9.38086H29.1924L25.6035 12.5425L29.7051 17.3398H30.4131ZM43.4502 7.7207C43.7269 7.7207 43.9222 7.78581 44.0361 7.91602C44.1582 8.03809 44.2192 8.24967 44.2192 8.55078V17.3398H45.2202C45.4969 17.3398 45.6922 17.4049 45.8062 17.5352C45.9282 17.6572 45.9893 17.8688 45.9893 18.1699C45.9893 18.471 45.9282 18.6867 45.8062 18.8169C45.6922 18.939 45.4969 19 45.2202 19H43.2793C43.0026 19 42.8032 18.939 42.6812 18.8169C42.5672 18.6948 42.5103 18.4832 42.5103 18.1821V16.7051C41.9731 17.5352 41.3424 18.1699 40.6182 18.6094C39.902 19.0488 39.1289 19.2686 38.2988 19.2686C37.5583 19.2686 36.9154 19.1099 36.3701 18.7925C35.8249 18.467 35.4058 18.0031 35.1128 17.4009C34.8198 16.7987 34.6733 16.0947 34.6733 15.2891V9.38086H33.6724C33.3957 9.38086 33.1963 9.31982 33.0742 9.19775C32.9603 9.06755 32.9033 8.85189 32.9033 8.55078C32.9033 8.24967 32.9603 8.03809 33.0742 7.91602C33.1963 7.78581 33.3957 7.7207 33.6724 7.7207H35.7354C36.012 7.7207 36.2074 7.78581 36.3213 7.91602C36.4434 8.03809 36.5044 8.24967 36.5044 8.55078V15.106C36.5044 15.8302 36.6712 16.404 37.0049 16.8271C37.3385 17.2503 37.8309 17.4619 38.4819 17.4619C39.1737 17.4619 39.8166 17.2625 40.4106 16.8638C41.0129 16.465 41.493 15.9157 41.8511 15.2158C42.2091 14.516 42.3882 13.7347 42.3882 12.8721V9.38086H40.6548C40.3781 9.38086 40.1787 9.31982 40.0566 9.19775C39.9427 9.06755 39.8857 8.85189 39.8857 8.55078C39.8857 8.24967 39.9427 8.03809 40.0566 7.91602C40.1787 7.78581 40.3781 7.7207 40.6548 7.7207H43.4502ZM58.355 7.45215C58.6886 7.45215 58.9246 7.51318 59.063 7.63525C59.2013 7.75732 59.2705 7.96077 59.2705 8.24561V10.5649C59.2705 10.8498 59.2013 11.0532 59.063 11.1753C58.9246 11.2974 58.6886 11.3584 58.355 11.3584C58.0783 11.3584 57.883 11.2526 57.769 11.041C57.4191 10.3737 56.9105 9.90576 56.2432 9.63721C55.5758 9.36051 54.7295 9.22217 53.7041 9.22217C52.9147 9.22217 52.2962 9.36458 51.8486 9.64941C51.4092 9.92611 51.1895 10.3167 51.1895 10.8213C51.1895 11.0817 51.2708 11.2933 51.4336 11.4561C51.6045 11.6188 51.8527 11.7531 52.1782 11.8589C52.4468 11.9484 52.756 12.0176 53.106 12.0664C53.464 12.1152 53.9238 12.1681 54.4854 12.2251C55.2747 12.3146 55.9095 12.4001 56.3896 12.4814C56.8779 12.5547 57.3377 12.6686 57.769 12.8232C58.4201 13.0592 58.9246 13.401 59.2827 13.8486C59.6489 14.2962 59.832 14.8862 59.832 15.6187C59.832 16.3511 59.6449 16.994 59.2705 17.5474C58.9043 18.0926 58.3631 18.5158 57.647 18.8169C56.939 19.118 56.0885 19.2686 55.0957 19.2686C54.2168 19.2686 53.4437 19.1465 52.7764 18.9023C52.109 18.6582 51.5272 18.2879 51.0308 17.7915V18.4751C51.0308 18.7599 50.9616 18.9634 50.8232 19.0854C50.6849 19.2075 50.4489 19.2686 50.1152 19.2686C49.7816 19.2686 49.5456 19.2075 49.4072 19.0854C49.2689 18.9634 49.1997 18.7599 49.1997 18.4751V15.5454C49.1997 15.2606 49.2689 15.0571 49.4072 14.9351C49.5456 14.813 49.7816 14.752 50.1152 14.752C50.2861 14.752 50.4204 14.7926 50.5181 14.874C50.6157 14.9473 50.7012 15.0734 50.7744 15.2524C51.0674 16.0337 51.5557 16.6034 52.2393 16.9614C52.9229 17.3195 53.8343 17.4985 54.9736 17.4985C55.9176 17.4985 56.6419 17.3276 57.1465 16.9858C57.651 16.644 57.9033 16.1883 57.9033 15.6187C57.9033 15.342 57.8138 15.1141 57.6348 14.9351C57.4557 14.756 57.1994 14.6095 56.8657 14.4956C56.5809 14.4061 56.2513 14.3328 55.877 14.2759C55.5107 14.2108 55.0428 14.1497 54.4731 14.0928C53.7082 14.0114 53.0693 13.9259 52.5566 13.8364C52.0439 13.7469 51.5719 13.6167 51.1406 13.4458C50.5465 13.2098 50.0827 12.8843 49.749 12.4692C49.4235 12.0461 49.2607 11.4967 49.2607 10.8213C49.2607 10.1133 49.4438 9.507 49.8101 9.00244C50.1844 8.48975 50.6971 8.10319 51.3481 7.84277C52.0073 7.58236 52.752 7.45215 53.582 7.45215C54.3714 7.45215 55.0916 7.57015 55.7427 7.80615C56.4019 8.04215 56.9674 8.37174 57.4395 8.79492V8.24561C57.4395 7.96077 57.5086 7.75732 57.647 7.63525C57.7853 7.51318 58.0213 7.45215 58.355 7.45215ZM65.8989 2.98438C66.1756 2.98438 66.3709 3.04948 66.4849 3.17969C66.6069 3.30176 66.668 3.51335 66.668 3.81445V9.89355C67.1969 9.10417 67.8073 8.50195 68.499 8.08691C69.1989 7.66374 69.9517 7.45215 70.7573 7.45215C71.4979 7.45215 72.1408 7.61491 72.686 7.94043C73.2313 8.25781 73.6504 8.71761 73.9434 9.31982C74.2363 9.92204 74.3828 10.626 74.3828 11.4316V17.3398H75.3838C75.6605 17.3398 75.8558 17.4049 75.9697 17.5352C76.0918 17.6572 76.1528 17.8688 76.1528 18.1699C76.1528 18.471 76.0918 18.6867 75.9697 18.8169C75.8558 18.939 75.6605 19 75.3838 19H71.4287C71.152 19 70.9526 18.939 70.8306 18.8169C70.7166 18.6867 70.6597 18.471 70.6597 18.1699C70.6597 17.8688 70.7166 17.6572 70.8306 17.5352C70.9526 17.4049 71.152 17.3398 71.4287 17.3398H72.5518V11.6147C72.5518 10.8905 72.3849 10.3167 72.0513 9.89355C71.7176 9.47038 71.2253 9.25879 70.5742 9.25879C69.8825 9.25879 69.2355 9.45817 68.6333 9.85693C68.0392 10.2557 67.5632 10.805 67.2051 11.5049C66.847 12.2048 66.668 12.986 66.668 13.8486V17.3398H67.791C68.0677 17.3398 68.263 17.4049 68.377 17.5352C68.499 17.6572 68.5601 17.8688 68.5601 18.1699C68.5601 18.471 68.499 18.6867 68.377 18.8169C68.263 18.939 68.0677 19 67.791 19H63.8359C63.5592 19 63.3599 18.939 63.2378 18.8169C63.1239 18.6867 63.0669 18.471 63.0669 18.1699C63.0669 17.8688 63.1239 17.6572 63.2378 17.5352C63.3599 17.4049 63.5592 17.3398 63.8359 17.3398H64.8369V4.64453H63.7139C63.4372 4.64453 63.2378 4.5835 63.1157 4.46143C63.0018 4.33122 62.9448 4.11556 62.9448 3.81445C62.9448 3.51335 63.0018 3.30176 63.1157 3.17969C63.2378 3.04948 63.4372 2.98438 63.7139 2.98438H65.8989ZM84.5391 7.45215C86.069 7.45215 87.2165 7.79395 87.9814 8.47754C88.7464 9.16113 89.1289 10.1743 89.1289 11.5171V16.3755C89.1289 17.0184 89.3975 17.3398 89.9346 17.3398H90.3618C90.6385 17.3398 90.8338 17.4049 90.9478 17.5352C91.0698 17.6572 91.1309 17.8688 91.1309 18.1699C91.1309 18.471 91.0698 18.6867 90.9478 18.8169C90.8338 18.939 90.6385 19 90.3618 19H89.5806C89.0516 19 88.5959 18.8698 88.2134 18.6094C87.839 18.3408 87.5949 17.9502 87.481 17.4375C86.8136 18.0234 86.0894 18.4751 85.3081 18.7925C84.535 19.1099 83.7131 19.2686 82.8423 19.2686C82.0203 19.2686 81.292 19.1302 80.6572 18.8535C80.0306 18.5687 79.5382 18.1577 79.1802 17.6206C78.8221 17.0835 78.6431 16.4447 78.6431 15.7041C78.6431 14.4183 79.1029 13.4702 80.0225 12.8599C80.9421 12.2414 82.1302 11.9321 83.5869 11.9321C84.8809 11.9321 86.1178 12.1396 87.2979 12.5547V11.5171C87.2979 10.7277 87.0741 10.1499 86.6265 9.78369C86.187 9.40934 85.4749 9.22217 84.4902 9.22217C83.8799 9.22217 83.2451 9.30762 82.5859 9.47852C81.9268 9.64941 81.3001 9.88542 80.7061 10.1865C80.5677 10.2598 80.4416 10.2964 80.3276 10.2964C80.0591 10.2964 79.8353 10.1011 79.6562 9.71045C79.5667 9.51514 79.522 9.35238 79.522 9.22217C79.522 8.93734 79.6725 8.71761 79.9736 8.56299C80.6572 8.20492 81.3896 7.93229 82.1709 7.74512C82.9603 7.5498 83.7497 7.45215 84.5391 7.45215ZM83.5991 13.6533C82.6632 13.6533 81.9227 13.8161 81.3774 14.1416C80.8403 14.459 80.5718 14.9676 80.5718 15.6675C80.5718 16.2616 80.7752 16.7254 81.1821 17.0591C81.5972 17.3846 82.175 17.5474 82.9155 17.5474C84.535 17.5474 85.9958 16.876 87.2979 15.5332V14.2026C86.7445 14.0236 86.1504 13.8893 85.5156 13.7998C84.8809 13.7021 84.242 13.6533 83.5991 13.6533ZM99.7979 2.98438C100.075 2.98438 100.27 3.04948 100.384 3.17969C100.506 3.30176 100.567 3.51335 100.567 3.81445V17.3398H104.485C104.762 17.3398 104.957 17.4049 105.071 17.5352C105.193 17.6572 105.254 17.8688 105.254 18.1699C105.254 18.471 105.193 18.6867 105.071 18.8169C104.957 18.939 104.762 19 104.485 19H94.915C94.6383 19 94.439 18.939 94.3169 18.8169C94.203 18.6867 94.146 18.471 94.146 18.1699C94.146 17.8688 94.203 17.6572 94.3169 17.5352C94.439 17.4049 94.6383 17.3398 94.915 17.3398H98.7358V4.64453H95.4033C95.1266 4.64453 94.9272 4.5835 94.8052 4.46143C94.6912 4.33122 94.6343 4.11556 94.6343 3.81445C94.6343 3.51335 94.6912 3.30176 94.8052 3.17969C94.9272 3.04948 95.1266 2.98438 95.4033 2.98438H99.7979ZM118.426 1.9834C118.751 1.9834 119.02 2.04443 119.231 2.1665C119.443 2.28857 119.549 2.4432 119.549 2.63037C119.549 2.69548 119.537 2.76465 119.512 2.83789L111.309 22.894C111.252 23.0243 111.15 23.13 111.004 23.2114C110.866 23.2928 110.703 23.3335 110.516 23.3335C110.19 23.3335 109.922 23.2725 109.71 23.1504C109.498 23.0283 109.393 22.8737 109.393 22.6865C109.393 22.6214 109.405 22.5522 109.429 22.479L117.632 2.42285C117.689 2.29264 117.787 2.18685 117.925 2.10547C118.072 2.02409 118.239 1.9834 118.426 1.9834ZM134.856 11.041C135.06 11.1387 135.206 11.2526 135.296 11.3828C135.385 11.513 135.43 11.6799 135.43 11.8833C135.43 12.0868 135.385 12.2536 135.296 12.3838C135.206 12.514 135.06 12.6279 134.856 12.7256L125.372 17.3765C125.209 17.4578 125.058 17.4985 124.92 17.4985C124.651 17.4985 124.428 17.3236 124.249 16.9736C124.151 16.7783 124.102 16.6074 124.102 16.4609C124.102 16.1924 124.269 15.9767 124.603 15.814L132.806 11.8833L124.603 7.95264C124.269 7.78988 124.102 7.57422 124.102 7.30566C124.102 7.15918 124.151 6.98828 124.249 6.79297C124.428 6.44303 124.651 6.26807 124.92 6.26807C125.058 6.26807 125.209 6.30876 125.372 6.39014L134.856 11.041Z" fill="black"/>
</g>
<defs>
<clipPath id="clip0_4_7">
<rect width="138.54" height="25.05" fill="white"/>
</clipPath>
</defs>
</svg>
